<svg width="19" height="25" viewBox="0 0 19 25" fill="none" xmlns="http://www.w3.org/2000/svg">
<path fill-rule="evenodd" clip-rule="evenodd" d="M1 2.30402C1 1.58383 1.58383 1 2.30402 1H18V3.60803H2.30402C1.58383 3.60803 1 3.0242 1 2.30402ZM18 4.60803H2.30402C1.81998 4.60803 1.3708 4.45877 1 4.20376V21.5012C1 22.3296 1.67157 23.0012 2.5 23.0012H18V4.60803ZM19 23.5012C19 23.7773 18.7761 24.0012 18.5 24.0012H2.5C1.11929 24.0012 0 22.8819 0 21.5012V2.30402C0 1.03154 1.03154 0 2.30402 0H18.5C18.7761 0 19 0.223858 19 0.5V4.10803V23.5012Z" fill="#757575"/>
<path fill-rule="evenodd" clip-rule="evenodd" d="M10.5 12.0003C10.5 12.9967 9.64492 13.8759 8.5 13.8759C7.35508 13.8759 6.5 12.9967 6.5 12.0003C6.5 11.004 7.35508 10.1248 8.5 10.1248C9.64492 10.1248 10.5 11.004 10.5 12.0003ZM10.0619 14.4559C9.60693 14.7224 9.07217 14.8759 8.5 14.8759C6.84315 14.8759 5.5 13.5885 5.5 12.0003C5.5 10.4122 6.84315 9.12479 8.5 9.12479C10.1569 9.12479 11.5 10.4122 11.5 12.0003C11.5 12.686 11.2496 13.3157 10.8317 13.8098L14.2219 17.0594L13.5 17.7514L10.0619 14.4559Z" fill="#757575"/>
</svg>
