<svg width="512" height="512" viewBox="0 0 512 512" fill="none" xmlns="http://www.w3.org/2000/svg">
<path d="M86 60H426V488H126C103.909 488 86 470.091 86 448V60Z" fill="#3BB8E0"/>
<path d="M86 60C86 40.1177 102.118 24 122 24H426V96H122C102.118 96 86 79.8823 86 60V60Z" fill="#3BB8E0"/>
<path d="M94 60C94 44.536 106.536 32 122 32H426V88H122C106.536 88 94 75.464 94 60V60Z" fill="#56CCF2"/>
<path fill-rule="evenodd" clip-rule="evenodd" d="M283.55 308.953H290.89L337.256 355.411L323.411 369.256L276.953 322.89V315.55L274.444 312.948C263.851 322.054 250.1 327.536 235.14 327.536C201.783 327.536 174.744 300.497 174.744 267.14C174.744 233.783 201.783 206.744 235.14 206.744C268.497 206.744 295.536 233.783 295.536 267.14C295.536 282.1 290.054 295.851 280.948 306.444L283.55 308.953ZM193.328 267.14C193.328 290.277 212.004 308.953 235.14 308.953C258.276 308.953 276.953 290.277 276.953 267.14C276.953 244.004 258.276 225.328 235.14 225.328C212.004 225.328 193.328 244.004 193.328 267.14Z" fill="white"/>
<path d="M396.714 71H355.286H347.041L347.041 79.4444L347 147L376 134.333L405 147V79.4444V71H396.714Z" fill="white"/>
<path d="M319 71C319 63.268 325.268 57 333 57V57V71H319V71Z" fill="#C4C4C4"/>
<path d="M333 57H391C398.732 57 405 63.268 405 71V71H333V57Z" fill="white"/>
<path d="M333 57V57C340.732 57 347 63.268 347 71V71H333V57Z" fill="#C4C4C4"/>
</svg>
